<?xml version="1.0" encoding="UTF-8"?><svg id="Layer_2" xmlns="http://www.w3.org/2000/svg" viewBox="0 0 373.19 103.1"><defs><style>.cls-1{fill:#fff;}.cls-2{fill:#84bb3b;}.cls-3{fill:#1b1f22;}.cls-4,.cls-5{fill:#269ed1;}.cls-5{font-family:NeoSansTR, 'Neo Sans TR';font-size:20.54px;}.cls-5,.cls-6{isolation:isolate;}</style></defs><g id="katman_1"><g class="cls-6"><g class="cls-6"><path class="cls-3" d="m128.75,54.13h-10.24v23.18h-8.85V19.97h21.79c2.35,0,4.55.45,6.59,1.35,2.05.9,3.85,2.13,5.41,3.69,1.56,1.56,2.79,3.37,3.69,5.45.9,2.08,1.35,4.29,1.35,6.64,0,3.44-.94,6.55-2.83,9.34-1.88,2.79-4.27,4.86-7.17,6.23l12.94,24.66h-9.99l-12.7-23.18Zm-10.24-8.85h12.94c1.15,0,2.21-.2,3.19-.61s1.84-.98,2.58-1.72,1.32-1.61,1.76-2.62c.44-1.01.66-2.09.66-3.24,0-2.29-.79-4.23-2.38-5.82-1.58-1.58-3.52-2.4-5.82-2.46h-12.94v16.47Z"/><path class="cls-3" d="m208.37,48.31c0,3.82-.56,7.51-1.68,11.06-1.12,3.55-2.81,6.68-5.08,9.38-2.27,2.7-5.08,4.87-8.44,6.51-3.36,1.64-7.25,2.46-11.67,2.46s-8.3-.82-11.63-2.46c-3.33-1.64-6.13-3.81-8.4-6.51-2.27-2.7-3.96-5.83-5.08-9.38-1.12-3.55-1.68-7.24-1.68-11.06s.56-7.41,1.68-10.94,2.81-6.62,5.08-9.3c2.27-2.68,5.07-4.82,8.4-6.43,3.33-1.61,7.21-2.42,11.63-2.42s8.32.81,11.67,2.42c3.36,1.61,6.17,3.76,8.44,6.43,2.27,2.68,3.96,5.78,5.08,9.3s1.68,7.17,1.68,10.94Zm-8.93.08c0-2.67-.37-5.24-1.11-7.7s-1.86-4.63-3.36-6.51c-1.5-1.88-3.37-3.37-5.61-4.46-2.24-1.09-4.86-1.64-7.87-1.64s-5.54.55-7.78,1.64c-2.24,1.09-4.1,2.57-5.57,4.42-1.47,1.86-2.59,4.01-3.36,6.47-.77,2.46-1.15,5.05-1.15,7.78s.38,5.33,1.15,7.78c.76,2.46,1.88,4.63,3.36,6.51s3.33,3.39,5.57,4.51c2.24,1.12,4.83,1.68,7.78,1.68s5.62-.54,7.87-1.64c2.24-1.09,4.11-2.58,5.61-4.46,1.5-1.88,2.62-4.05,3.36-6.51s1.11-5.08,1.11-7.86Z"/><path class="cls-3" d="m211.65,77.31V19.97h8.85v48.5h26.71v8.85h-35.55Z"/><path class="cls-3" d="m272.92,28.81v48.5h-8.85V28.81h-13.6v-8.85h35.8v8.85h-13.35Z"/><path class="cls-3" d="m289.55,77.31V19.97h35.39v8.85h-26.54v14.34h24.17v8.85h-24.17v16.47h26.79v8.85h-35.63Z"/><path class="cls-3" d="m328.46,77.31V19.97h8.77v24.08l24.08-24.08h11.88l-27.94,27.85c2.18,2.29,4.46,4.7,6.84,7.21,2.38,2.51,4.76,5.05,7.17,7.62,2.4,2.57,4.79,5.09,7.17,7.58s4.63,4.85,6.76,7.09h-12.29l-23.67-25.23v25.23h-8.77Z"/></g></g><path class="cls-4" d="m58.22,57.86l1.24.53-.15.86c-.07.4-.15.8-.21,1.21-.07.4-.13.8-.2,1.21-.07.4-.13.8-.2,1.21-.07.4-.13.8-.2,1.21-.07.4-.13.81-.2,1.21-.06.4-.12.81-.18,1.21-.06.41-.12.81-.18,1.21s-.12.81-.18,1.21c-.07.4-.12.81-.18,1.21s-.11.81-.16,1.22-.1.81-.16,1.22c-.05.4-.11.81-.16,1.22s-.1.81-.15,1.22c-.05.41-.1.81-.14,1.22-.05.41-.09.82-.14,1.22-.05.41-.09.81-.14,1.22-.04.41-.08.82-.13,1.23-.04.41-.08.82-.12,1.23-.04.41-.08.82-.12,1.23-.04.41-.07.82-.11,1.23-.03.41-.07.82-.1,1.23s-.06.82-.09,1.23-.06.82-.08,1.24c-.03.41-.05.82-.07,1.24-.02.41-.04.83-.06,1.24-.02.41-.03.83-.05,1.24,0,.41-.03.83-.03,1.24s-.02.83-.02,1.25c-.69.12-1.37.23-2.07.33-.69.1-1.39.18-2.1.24-.7.07-1.41.11-2.12.15s-1.43.05-2.14.05c-6.51,0-12.7-1.32-18.34-3.7s-10.71-5.83-14.98-10.1c-4.26-4.26-7.72-9.33-10.1-14.97-2.38-5.64-3.7-11.83-3.7-18.34,0-5.78,1.04-11.32,2.95-16.43,1.9-5.11,4.67-9.81,8.13-13.91,3.46-4.1,7.6-7.6,12.25-10.32,4.65-2.73,9.81-4.68,15.3-5.68-.18.37-.37.75-.55,1.12s-.36.75-.54,1.12c-.18.38-.35.75-.52,1.13-.17.38-.34.75-.51,1.13s-.33.76-.5,1.14-.33.76-.49,1.14c-.16.38-.32.76-.48,1.14s-.32.76-.47,1.15c-.32.76-.62,1.52-.93,2.29-.3.76-.6,1.53-.9,2.29-.29.77-.59,1.53-.87,2.3-.29.77-.57,1.54-.85,2.31-.13.39-.27.77-.41,1.16-.14.38-.28.77-.42,1.15s-.28.77-.41,1.16c-.14.39-.27.77-.4,1.16s-.26.78-.39,1.16c-.13.39-.26.77-.4,1.16-.13.39-.26.77-.39,1.16s-.26.78-.38,1.17c-.12.39-.25.78-.37,1.16-.13.39-.25.78-.38,1.16-.12.39-.25.78-.37,1.17-.12.39-.25.78-.37,1.17l-1.42,4.68-1.04,3.43,3.58,1.89,4.32,2.28c.36.19.72.38,1.08.57s.73.37,1.09.55.73.37,1.09.55.73.37,1.09.55c.72.37,1.45.74,2.18,1.11.73.36,1.46.73,2.19,1.09s1.46.71,2.19,1.07,1.47.71,2.2,1.06c.74.35,1.47.69,2.21,1.04.74.35,1.47.69,2.21,1.03.74.34,1.48.68,2.22,1.02s1.49.67,2.23.99c.37.16.74.33,1.12.5.37.17.74.33,1.11.5s.74.33,1.12.5c.37.16.75.32,1.12.48"/><path class="cls-2" d="m47.13.03c6.5,0,12.7,1.32,18.34,3.7,5.63,2.38,10.71,5.83,14.97,10.1,4.26,4.26,7.71,9.34,10.1,14.98,2.38,5.64,3.7,11.83,3.7,18.34,0,5.79-1.04,11.33-2.95,16.44-1.91,5.12-4.68,9.82-8.14,13.91-3.46,4.1-7.61,7.6-12.27,10.32s-9.83,4.67-15.33,5.66c.19-.37.37-.75.55-1.12s.36-.75.54-1.12.35-.75.52-1.12c.17-.37.34-.75.51-1.13s.33-.76.5-1.13c.17-.38.33-.76.49-1.14s.32-.76.48-1.14.32-.76.47-1.14c.16-.38.32-.76.47-1.14.16-.38.31-.76.46-1.14.15-.38.3-.77.45-1.15.15-.38.3-.76.45-1.15.14-.39.29-.77.44-1.15.14-.38.29-.77.44-1.15.14-.39.29-.77.43-1.15.14-.38.28-.77.42-1.15.14-.39.27-.77.41-1.16.14-.39.28-.77.42-1.15.14-.39.28-.77.41-1.16.14-.38.27-.77.4-1.16.13-.39.26-.77.39-1.16.13-.39.27-.77.4-1.16.13-.39.26-.77.39-1.16.13-.39.25-.78.38-1.17.12-.38.25-.77.37-1.16.13-.39.25-.78.38-1.17s.25-.78.37-1.17.24-.78.36-1.17l1.43-4.68,1.04-3.44-3.59-1.89-4.32-2.28c-.36-.19-.72-.38-1.08-.57s-.72-.37-1.09-.56c-.36-.18-.73-.37-1.09-.55s-.72-.37-1.09-.55c-.72-.37-1.45-.74-2.18-1.1l-2.19-1.08c-.73-.36-1.46-.71-2.2-1.06-.73-.35-1.47-.7-2.2-1.06-.74-.35-1.48-.69-2.21-1.04-.74-.34-1.48-.69-2.21-1.03-.74-.34-1.48-.68-2.22-1.01-.74-.34-1.48-.67-2.23-1-.37-.16-.74-.33-1.12-.5-.37-.17-.74-.33-1.11-.5-.37-.16-.74-.33-1.12-.49-.37-.16-.75-.32-1.12-.48l-1.25-.53.16-.87c.07-.4.14-.8.21-1.21.07-.4.13-.8.2-1.21.07-.4.13-.81.2-1.21.06-.4.13-.8.2-1.21.07-.4.13-.81.2-1.21.06-.4.12-.81.18-1.21s.12-.81.18-1.21.12-.81.18-1.21.12-.81.17-1.21c.06-.41.11-.81.16-1.22s.1-.81.16-1.22c.05-.41.11-.81.16-1.22.1-.81.2-1.63.29-2.44.1-.81.19-1.63.28-2.45.09-.81.17-1.63.25-2.45s.15-1.64.22-2.46c.04-.41.07-.82.1-1.23.03-.41.06-.82.09-1.23s.06-.82.08-1.24.05-.83.07-1.24.04-.82.06-1.24c.02-.41.04-.83.05-1.24.02-.41.03-.83.04-1.25,0-.41.02-.83.02-1.25.69-.13,1.38-.24,2.08-.33.7-.1,1.4-.18,2.11-.24.71-.07,1.42-.12,2.14-.15.72-.04,1.44-.05,2.16-.05"/><path class="cls-1" d="m17.44,46.46s-.12-.14-.31-.38c-.09-.13-.21-.28-.33-.45-.13-.17-.27-.37-.37-.63-.12-.25-.25-.52-.37-.82-.14-.29-.2-.61-.29-.95-.07-.33-.19-.68-.2-1.04-.04-.36-.06-.73-.08-1.09.02-.37.05-.73.08-1.09.01-.36.13-.71.2-1.04.09-.33.15-.66.29-.94.12-.29.24-.56.36-.8.1-.25.24-.46.37-.64.12-.18.24-.34.34-.46.19-.25.31-.38.31-.38,0,0-.02.19-.07.49-.03.15-.06.34-.1.54-.05.21-.09.43-.12.69-.03.25-.07.53-.12.81-.07.28-.04.59-.09.89-.03.31-.08.62-.07.95,0,.33-.02.65-.04.98.02.33.03.65.04.98,0,.33.04.64.07.95.05.3.03.62.09.89.05.27.09.54.12.79.02.25.07.49.12.7.05.21.08.4.11.55.05.31.07.49.07.49"/><path class="cls-1" d="m13.15,49.14s-.16-.22-.41-.6c-.12-.19-.28-.43-.44-.71-.08-.14-.17-.28-.26-.44s-.15-.34-.23-.53c-.16-.37-.33-.78-.49-1.22-.19-.43-.26-.91-.38-1.41-.1-.49-.26-1-.27-1.54-.04-.53-.08-1.07-.12-1.61.04-.54.08-1.08.11-1.61.01-.53.17-1.04.27-1.54.12-.49.19-.98.38-1.4.16-.43.33-.84.48-1.21.08-.18.14-.36.23-.52.09-.16.18-.31.27-.45.16-.28.32-.52.45-.71.25-.39.41-.6.41-.6,0,0-.05.27-.17.71-.06.22-.12.49-.21.79s-.18.64-.24,1.02c-.07.38-.15.79-.25,1.21-.06.21-.09.43-.1.66-.02.23-.06.46-.08.69-.06.47-.14.95-.14,1.45-.01.49-.04,1-.07,1.5.03.5.05,1,.07,1.5,0,.5.08.98.14,1.45.03.24.06.46.08.69.01.23.05.45.1.66.1.42.17.82.24,1.2.06.38.15.73.25,1.03.09.31.16.58.22.8.11.45.16.71.16.71"/><path class="cls-1" d="m8.86,51.82s-.19-.3-.5-.82c-.15-.27-.34-.59-.55-.96-.1-.19-.22-.38-.33-.59s-.19-.46-.29-.7c-.19-.5-.41-1.04-.61-1.62-.05-.15-.1-.29-.16-.44-.04-.15-.07-.31-.11-.46-.08-.31-.14-.63-.21-.96-.12-.66-.33-1.33-.33-2.03-.05-.7-.1-1.42-.15-2.13.05-.71.1-1.43.15-2.13,0-.71.21-1.38.33-2.03.07-.33.13-.65.21-.96.04-.16.07-.31.11-.46l.16-.44c.2-.58.41-1.12.61-1.61.1-.24.18-.49.29-.7.12-.21.23-.41.34-.6.21-.38.4-.7.56-.96.31-.53.5-.82.5-.82,0,0-.09.34-.26.93-.09.29-.2.64-.32,1.04-.06.2-.13.41-.2.64-.06.22-.11.47-.16.72-.11.5-.23,1.05-.37,1.61-.03.14-.07.29-.1.43-.02.15-.03.3-.05.45-.03.31-.08.62-.13.93-.09.63-.21,1.28-.21,1.94-.03.66-.06,1.34-.1,2.01.03.67.06,1.35.1,2.01,0,.67.12,1.31.21,1.94.04.31.09.62.12.93.02.15.04.3.05.45.03.14.07.29.1.43.14.56.25,1.1.36,1.6.06.25.1.49.16.72.07.23.14.44.21.65.13.41.24.76.33,1.05.17.59.26.93.26.93"/><path class="cls-1" d="m76.87,47.85s.12.14.31.38c.09.12.21.27.33.45.13.17.27.37.37.63.12.25.25.52.37.82.14.29.2.61.29.95.07.33.19.68.2,1.04.04.36.06.73.09,1.09-.02.37-.05.73-.08,1.09-.01.36-.13.7-.2,1.04-.09.33-.15.66-.29.94-.12.29-.24.56-.36.8-.1.25-.24.46-.37.64-.12.18-.24.34-.34.46-.19.25-.31.38-.31.38,0,0,.02-.19.07-.49.03-.15.06-.34.1-.54.05-.2.09-.43.12-.69.03-.25.07-.53.12-.81.07-.28.04-.59.09-.89.03-.31.08-.62.07-.95,0-.33.02-.65.04-.98-.02-.33-.03-.65-.04-.98,0-.33-.04-.64-.07-.95-.05-.3-.02-.62-.09-.89-.05-.27-.09-.54-.12-.8-.02-.25-.07-.49-.12-.7s-.08-.4-.11-.55c-.05-.31-.07-.49-.07-.49"/><path class="cls-1" d="m81.16,45.17s.15.22.41.6c.12.2.28.43.44.71.08.14.17.28.26.44.09.16.15.34.23.53.16.37.33.78.49,1.22.19.44.26.91.38,1.41.1.49.26,1,.27,1.54.04.53.08,1.07.12,1.61-.04.54-.08,1.08-.11,1.61-.01.53-.17,1.04-.27,1.53-.12.49-.19.98-.38,1.4-.16.43-.33.84-.48,1.21-.08.18-.14.37-.23.53-.09.16-.18.31-.27.45-.16.28-.32.52-.45.71-.25.39-.41.6-.41.6,0,0,.05-.27.17-.71.06-.22.12-.49.21-.79s.18-.64.24-1.02c.07-.38.15-.79.25-1.21.06-.21.09-.43.1-.66.02-.23.06-.46.08-.69.06-.47.14-.95.14-1.45.01-.49.04-.99.07-1.5-.03-.5-.05-1-.07-1.5,0-.5-.08-.98-.14-1.45-.03-.24-.06-.46-.08-.69-.01-.23-.05-.45-.1-.66-.1-.42-.17-.82-.24-1.2-.06-.38-.15-.73-.25-1.04-.09-.31-.16-.58-.22-.8-.11-.45-.17-.71-.17-.71"/><path class="cls-1" d="m85.45,42.49s.19.3.5.82c.15.27.34.59.55.96.1.19.22.38.33.59s.19.46.29.7c.19.5.41,1.04.61,1.62.05.15.1.29.16.44.04.15.07.31.11.46.08.31.14.63.21.96.13.66.33,1.33.34,2.03.05.7.1,1.42.15,2.13-.05.71-.1,1.43-.15,2.13,0,.71-.21,1.38-.33,2.03-.07.33-.13.65-.21.96-.04.16-.07.31-.11.46-.05.15-.11.29-.16.44-.2.58-.41,1.12-.61,1.61-.1.25-.17.49-.29.7s-.23.41-.34.6c-.21.38-.4.7-.56.96-.31.53-.5.82-.5.82,0,0,.09-.34.26-.93.09-.29.2-.64.32-1.05.06-.2.13-.41.2-.63s.11-.47.16-.72c.11-.5.23-1.05.37-1.61.03-.14.07-.29.1-.43.02-.15.03-.3.05-.45.03-.31.08-.61.13-.93.08-.63.2-1.27.21-1.94.03-.66.06-1.34.1-2.02-.03-.67-.06-1.35-.09-2.01,0-.67-.12-1.31-.21-1.94-.04-.31-.09-.62-.12-.93-.02-.15-.04-.3-.05-.45-.04-.14-.07-.29-.1-.43-.14-.56-.26-1.1-.36-1.6-.06-.25-.1-.49-.16-.72-.07-.23-.14-.44-.21-.65-.13-.41-.24-.76-.33-1.05-.17-.59-.26-.93-.26-.93"/><path class="cls-1" d="m23.86,41.1c0,1.18-.96,2.14-2.15,2.14s-2.14-.96-2.14-2.14.96-2.15,2.14-2.15,2.15.96,2.15,2.15"/><path class="cls-1" d="m74.62,53.21c0,1.18-.96,2.14-2.14,2.14s-2.15-.96-2.15-2.14.96-2.14,2.15-2.14,2.14.96,2.14,2.14"/><g class="cls-6"><text class="cls-5" transform="translate(81 98.66)"><tspan x="0" y="0" xml:space="preserve">      </tspan></text></g></g></svg>